<?xml version="1.0" encoding="UTF-8"?>
<svg width="752pt" height="752pt" version="1.1" viewBox="0 0 752 752" xmlns="http://www.w3.org/2000/svg">
 <g fill="#4c25e0">
  <path d="m459.02 162.88h-214.44c-19.734 0-35.785 16.055-35.785 35.785v354.66c0 19.73 16.055 35.785 35.785 35.785h263.77c19.734 0 35.789-16.055 35.789-35.785v-305.36zm6.7969 16.758 61.766 61.555h-29.688c-0.5625 0-1.0977-0.13672-1.6641-0.16406-11.547-0.59766-21.391-7.2656-26.531-16.906-0.64844-1.207-1.2578-2.4141-1.7383-3.7031-0.46094-1.2031-0.84766-2.4375-1.1523-3.7031-0.60156-2.4492-1.0039-4.9688-1.0039-7.5977l0.003907-29.48zm30.422 68.797v57.797l-238.94-0.003906v-82.113h204.11c5.7109 13.852 19.094 23.645 34.828 24.32zm40.48 304.89c0 15.648-12.73 28.371-28.379 28.371h-263.76c-15.648 0-28.379-12.73-28.379-28.371v-354.66c0-15.648 12.73-28.379 28.379-28.379h207.85c2.9609 0 5.9805 2.2344 5.9805 5.9844v5.125 27.703c0 2.6016 0.28906 5.1328 0.76562 7.5977l-209.29 0.003906v96.934h253.76v-65.035h21.961 6.9844c1.9766 0 4.125 1.332 4.125 4.5898v300.13z"/>
  <path d="m249.89 334v3.707h253.76v-7.4102h-253.76z"/>
  <path d="m249.89 353.14v3.7031h253.76v-7.4062h-253.76z"/>
  <path d="m249.89 372.28v3.707h253.76v-7.4102h-253.76z"/>
  <path d="m249.89 391.42v3.7031h253.76v-7.4062h-253.76z"/>
  <path d="m249.89 410.55v3.707h253.76v-7.4102h-253.76z"/>
  <path d="m249.89 429.69v3.7031h253.76v-7.4062h-253.76z"/>
  <path d="m249.89 448.83v3.7031h253.76v-7.4062h-253.76z"/>
  <path d="m249.89 467.96v3.7031h253.76v-7.4062h-253.76z"/>
  <path d="m249.89 487.1v3.707h253.76v-7.4102h-253.76z"/>
  <path d="m249.89 506.24v3.6992h253.76v-7.4023h-253.76z"/>
  <path d="m249.89 525.38v3.7031h253.76v-7.4062h-253.76z"/>
  <path d="m249.89 544.52v3.7031h221.96v-7.4062h-221.96z"/>
 </g>
</svg>
