<?xml version="1.0" encoding="UTF-8" standalone="no"?>
<!DOCTYPE svg PUBLIC "-//W3C//DTD SVG 1.1//EN" "http://www.w3.org/Graphics/SVG/1.1/DTD/svg11.dtd">
<svg width="100%" height="100%" viewBox="0 0 477 490" version="1.1" xmlns="http://www.w3.org/2000/svg" xmlns:xlink="http://www.w3.org/1999/xlink" xml:space="preserve" xmlns:serif="http://www.serif.com/" style="fill-rule:evenodd;clip-rule:evenodd;stroke-linejoin:round;stroke-miterlimit:2;">
    <g transform="matrix(1,0,0,1,-139,-130)">
        <path d="M603.32,177.09C603.32,161.395 590.597,148.676 574.906,148.676L177.096,148.676C161.401,148.676 148.682,161.399 148.682,177.09L148.682,226.676L603.322,226.676L603.32,177.09Z" style="fill:rgb(37,117,193);fill-rule:nonzero;"/>
        <path d="M603.32,574.92L603.32,236.12L148.68,236.12L148.68,574.92C148.68,590.549 161.371,603.334 177.094,603.334L574.904,603.334C590.627,603.334 603.318,590.549 603.318,574.92L603.32,574.92ZM284.25,550.912L177.09,550.912L177.09,541.439L284.25,541.439L284.25,550.912ZM284.25,498.439L177.09,498.439L177.09,488.966L284.25,488.966L284.25,498.439ZM284.25,445.962L177.09,445.962L177.09,436.489L284.25,436.489L284.25,445.962ZM284.25,393.489L177.09,393.489L177.09,384.016L284.25,384.016L284.25,393.489ZM284.25,341.009L177.09,341.009L177.09,331.536L284.25,331.536L284.25,341.009ZM284.25,288.536L177.09,288.536L177.09,279.063L284.25,279.063L284.25,288.536ZM429.57,550.916L322.43,550.916L322.43,541.443L429.58,541.443L429.57,550.916ZM429.57,498.443L322.43,498.443L322.43,488.97L429.58,488.97L429.57,498.443ZM429.57,445.966L322.43,445.966L322.43,436.493L429.58,436.493L429.57,445.966ZM574.9,550.916L467.74,550.916L467.74,541.443L574.9,541.443L574.9,550.916ZM574.9,498.443L467.74,498.443L467.74,488.97L574.9,488.97L574.9,498.443ZM574.9,445.966L467.74,445.966L467.74,436.493L574.9,436.493L574.9,445.966ZM584.377,402.919L312.917,402.919L312.917,269.559L584.377,269.559L584.377,402.919Z" style="fill:rgb(37,117,193);fill-rule:nonzero;"/>
        <rect x="322.43" y="279.07" width="252.48" height="114.42" style="fill:rgb(37,117,193);fill-rule:nonzero;"/>
    </g>
</svg>
